# xmcd
#
# Track frame offsets: 
#        150
#        5409
#        12619
#        17911
#        29124
#        35479
#        42375
#        53112
#        59419
#        69358
#        72527
#        76187
#        88665
#        94352
#        106338
#        112280
#        121331
#        128732
#        132476
#        139569
#        147642
#        154176
#
# Disc length: 2138 seconds
#
# Revision: 0
# Processed by: cddbd v1.5.2PL0 Copyright (c) Steve Scherf et al.
# Submitted via: ExactAudioCopy v0.99pb3
#
DISCID=49085816
DTITLE=Boyracer - To Get A Better Hold You've Got To Loosen Your Grip
DYEAR=2002
DGENRE=555 Recordings
TTITLE0=Sarah And Sarah
TTITLE1=Temper
TTITLE2=They're Making Money Off You
TTITLE3=Nothing Left
TTITLE4=Stars And Car Parks
TTITLE5=Tell Me Where My Hands Should Go
TTITLE6=Glitter
TTITLE7=Eyes Shining With Determination
TTITLE8=In Love
TTITLE9=Jon Al Dente, Impressive One Stop Customer Relations 
TTITLE10=Matty's Untitled Song
TTITLE11=Grand Rapids
TTITLE12=Yr Arrogance Is Not Lost
TTITLE13=Razor
TTITLE14=Nostalgic For A Time I Hardly Remember
TTITLE15=Come Out 2Nite
TTITLE16=Heaven Is Not Broken
TTITLE17=Kachina Doll
TTITLE18=Priorities
TTITLE19=Every Day Is Christmas With You
TTITLE20=Temper (version)
TTITLE21=Sarah And Sarah (version)
EXTD=
EXTT0=
EXTT1=
EXTT2=
EXTT3=
EXTT4=
EXTT5=
EXTT6=
EXTT7=
EXTT8=
EXTT9=
EXTT10=
EXTT11=
EXTT12=
EXTT13=
EXTT14=
EXTT15=
EXTT16=
EXTT17=
EXTT18=
EXTT19=
EXTT20=
EXTT21=
PLAYORDER=
